<svg width="533" height="585" viewBox="0 0 533 585" fill="none" xmlns="http://www.w3.org/2000/svg">
<g clip-path="url(#clip0_3_11)">
<path d="M515.773 215.615H16.7705C12.3242 215.611 8.06157 213.946 4.91762 210.988C1.77366 208.03 0.00513396 204.018 0 199.834V15.7809C0.00513396 11.597 1.77366 7.58588 4.91762 4.62743C8.06157 1.66897 12.3242 0.00480052 16.7705 -3.05176e-05H515.773C520.219 0.00480052 524.482 1.66897 527.626 4.62743C530.77 7.58588 532.538 11.597 532.543 15.7809V199.835C532.538 204.018 530.77 208.03 527.626 210.988C524.482 213.946 520.219 215.611 515.773 215.615Z" fill="white"/>
<path d="M399.395 205.551H95.9795C73.3694 205.527 51.6927 197.064 35.705 182.02C19.7172 166.975 10.7241 146.578 10.6986 125.302V90.3225C10.7241 69.0465 19.7172 48.6487 35.7049 33.6042C51.6926 18.5597 73.3694 10.0971 95.9795 10.073H436.567C459.177 10.0971 480.854 18.5597 496.841 33.6042C512.829 48.6487 521.822 69.0465 521.848 90.3225C521.811 120.872 508.898 150.161 485.941 171.763C462.985 193.365 431.86 205.516 399.395 205.551Z" fill="white"/>
<path d="M321.126 62.7614H120.565C119.418 62.7614 118.317 62.3326 117.506 61.5694C116.695 60.8061 116.24 59.7709 116.24 58.6915C116.24 57.6121 116.695 56.5769 117.506 55.8137C118.317 55.0504 119.418 54.6216 120.565 54.6216H321.126C322.273 54.6216 323.373 55.0504 324.184 55.8137C324.995 56.5769 325.451 57.6121 325.451 58.6915C325.451 59.7709 324.995 60.8061 324.184 61.5694C323.373 62.3326 322.273 62.7614 321.126 62.7614Z" fill="#E6E6E6"/>
<path d="M422.653 106.185H120.565C119.418 106.185 118.317 105.756 117.506 104.993C116.695 104.229 116.24 103.194 116.24 102.115C116.24 101.035 116.695 100 117.506 99.2369C118.317 98.4736 119.418 98.0449 120.565 98.0449H422.653C423.8 98.0449 424.9 98.4736 425.711 99.2369C426.522 100 426.978 101.035 426.978 102.115C426.978 103.194 426.522 104.229 425.711 104.993C424.9 105.756 423.8 106.185 422.653 106.185Z" fill="#E6E6E6"/>
<path d="M422.653 149.608H120.565C119.418 149.608 118.317 149.179 117.506 148.416C116.695 147.653 116.24 146.617 116.24 145.538C116.24 144.459 116.695 143.423 117.506 142.66C118.317 141.897 119.418 141.468 120.565 141.468H422.653C423.8 141.468 424.9 141.897 425.711 142.66C426.522 143.423 426.978 144.459 426.978 145.538C426.978 146.617 426.522 147.653 425.711 148.416C424.9 149.179 423.8 149.608 422.653 149.608Z" fill="#E6E6E6"/>
<path d="M422.653 149.608H120.565C119.418 149.608 118.317 149.179 117.506 148.416C116.695 147.653 116.24 146.617 116.24 145.538C116.24 144.459 116.695 143.423 117.506 142.66C118.317 141.897 119.418 141.468 120.565 141.468H422.653C423.8 141.468 424.9 141.897 425.711 142.66C426.522 143.423 426.978 144.459 426.978 145.538C426.978 146.617 426.522 147.653 425.711 148.416C424.9 149.179 423.8 149.608 422.653 149.608Z" fill="#E6E6E6"/>
<path d="M299.961 111.169C300.009 112.394 300.343 113.596 300.937 114.687C301.532 115.779 302.374 116.735 303.404 117.487C304.433 118.239 305.626 118.77 306.897 119.042C308.168 119.314 309.488 119.32 310.762 119.06L327.256 144.522L334.276 130.505L317.536 108.474C316.931 106.489 315.572 104.782 313.718 103.677C311.864 102.571 309.644 102.144 307.477 102.476C305.311 102.808 303.349 103.876 301.964 105.478C300.579 107.08 299.866 109.105 299.961 111.169Z" fill="#FFB6B6"/>
<path d="M423.74 184.142L366.898 155.129L348.968 139.3C348.968 139.3 341.174 137.336 344.043 134.952C346.912 132.567 338.736 130.267 338.736 130.267L329.111 121.769L315.435 130.876L319.393 136.649C319.393 136.649 319.12 146.207 324.685 144.369C330.249 142.53 328.859 150.457 328.859 150.457L362.072 198.903L423.74 184.142Z" fill="#E8E3D3"/>
<path d="M255.947 156.807C286.611 156.807 311.469 133.416 311.469 104.562C311.469 75.7074 286.611 52.3163 255.947 52.3163C225.284 52.3163 200.426 75.7074 200.426 104.562C200.426 133.416 225.284 156.807 255.947 156.807Z" fill="#85754D"/>
<path d="M423.916 564.687H412.372L406.878 522.786H423.916V564.687Z" fill="#FFB6B6"/>
<path d="M430.009 583.509H421.731L420.253 576.154L416.468 583.509H394.51C393.458 583.509 392.433 583.193 391.585 582.606C390.737 582.019 390.111 581.192 389.798 580.247C389.485 579.301 389.501 578.286 389.844 577.35C390.187 576.414 390.84 575.605 391.706 575.043L409.24 563.647V556.211L427.684 557.247L430.009 583.509Z" fill="#2F2E41"/>
<path d="M331.584 564.687H320.04L314.546 522.786H331.584V564.687Z" fill="#FFB6B6"/>
<path d="M337.678 583.509H329.399L327.921 576.154L324.136 583.509H302.179C301.126 583.509 300.101 583.193 299.253 582.606C298.405 582.019 297.779 581.192 297.466 580.247C297.153 579.301 297.169 578.286 297.512 577.35C297.855 576.414 298.508 575.605 299.374 575.043L316.909 563.647V556.211L335.352 557.247L337.678 583.509Z" fill="#2F2E41"/>
<path d="M411.667 247.795H353.399V310.216H411.667V247.795Z" fill="#FFB6B6"/>
<path d="M354.744 278.584L344.883 289.55L327.851 323.291L284.935 419.378L275.858 439.698L283.188 475.621C283.188 475.621 284.374 500.93 284.374 505.072C284.374 513.508 291.872 518.182 291.872 518.182L297.373 545.14L350.71 543.031C350.71 543.031 348.849 513.315 337.678 505.82C326.506 498.324 321.371 459.259 321.371 459.259L315.301 441.927L374.465 375.932L374.847 399.001L375.032 410.166C375.032 410.166 366.368 482.789 376.467 496.883C386.567 510.977 376.673 509.319 376.673 509.319L377.154 538.392L440.352 538.814L426.41 455.112C426.41 455.112 419.33 449.852 423.118 444.564C426.906 439.277 419.447 432.801 419.447 432.801L422.792 367.457C422.792 367.457 419.088 356.17 423.445 354.703C427.802 353.236 424.017 343.53 424.017 343.53L424.665 330.883L411.667 291.658L354.744 278.584Z" fill="#1E1E1E"/>
<path d="M412.563 247.795L418.838 230.08L423.32 224.176L425.113 207.305C425.113 161.754 414.316 169.339 414.316 169.339L408.081 153.319L379.395 152.475L361.019 168.924L345.779 173.985L339.812 203.163L350.71 234.298L353.399 251.169C348.269 260.08 348.703 255.865 352.951 262.556L403.599 275.631C421.527 281.536 421.527 266.352 417.932 262.556C414.337 258.761 412.563 247.795 412.563 247.795Z" fill="#E8E3D3"/>
<path d="M390.033 146.813C404.719 146.813 416.625 135.609 416.625 121.789C416.625 107.969 404.719 96.7658 390.033 96.7658C375.346 96.7658 363.44 107.969 363.44 121.789C363.44 135.609 375.346 146.813 390.033 146.813Z" fill="#FFB6B6"/>
<path d="M425.534 155.191C425.785 155.589 425.937 156.035 425.979 156.496C426.021 156.957 425.952 157.42 425.777 157.853C425.602 158.285 425.326 158.674 424.969 158.992C424.612 159.31 424.183 159.547 423.715 159.688C420.147 160.801 417.951 164.049 415.387 166.647C412.832 169.236 408.718 171.387 405.455 169.624C402.201 167.87 401.976 163.391 399.251 160.961C396.598 158.599 392.187 158.886 389.068 160.683L388.975 160.737C388.436 161.067 387.807 161.242 387.164 161.239C386.521 161.236 385.893 161.056 385.358 160.721C384.823 160.386 384.403 159.911 384.152 159.354C383.901 158.798 383.828 158.184 383.944 157.589C385.037 152.119 386.129 146.649 387.221 141.18C384.352 147.684 380.186 153.611 374.949 158.642C373.507 160.208 371.678 161.419 369.624 162.168C367.76 162.724 365.949 160.911 364.138 161.24C368.638 157.537 383.77 133.799 381.063 117.933C377.88 118.27 374.698 118.607 371.516 118.945C371.171 117.528 370.435 116.221 369.382 115.157C369.511 116.537 369.325 117.926 368.836 119.232C367.509 119.375 366.173 119.51 364.846 119.653C363 119.847 360.992 120.016 359.405 119.105C356.761 117.587 356.68 113.993 357.433 111.159C359.638 102.918 366.325 96.026 374.51 92.4158C382.694 88.8138 385.115 96.8358 393.738 94.2716C410.77 89.2104 423.822 97.865 428.421 113.926C432.285 127.397 429.479 141.695 425.534 155.191Z" fill="#2F2E41"/>
<path d="M499.155 584.054H466.593L466.453 583.815C466.037 583.104 465.635 582.351 465.259 581.578C461.905 574.821 460.487 567.093 459.236 560.274L458.294 555.135C458.18 554.512 458.266 553.872 458.541 553.296C458.816 552.72 459.267 552.234 459.838 551.9C460.408 551.567 461.071 551.401 461.741 551.424C462.412 551.448 463.06 551.659 463.603 552.03C468.551 555.419 473.502 558.804 478.454 562.186C480.329 563.47 482.471 564.956 484.522 566.561C484.72 565.657 484.927 564.75 485.134 563.856C485.277 563.238 485.612 562.675 486.097 562.237C486.582 561.8 487.194 561.509 487.856 561.401C488.518 561.294 489.199 561.374 489.812 561.633C490.425 561.891 490.942 562.316 491.296 562.853L495.106 568.613C497.885 572.819 500.337 576.964 499.838 581.434C499.84 581.489 499.836 581.543 499.825 581.597C499.725 582.331 499.539 583.053 499.272 583.749L499.155 584.054Z" fill="#F0F0F0"/>
<path d="M531.838 584.716L222.413 585C222.104 584.999 221.808 584.882 221.591 584.676C221.373 584.47 221.25 584.191 221.25 583.901C221.25 583.61 221.373 583.331 221.591 583.125C221.808 582.919 222.104 582.803 222.413 582.801L531.838 582.518C532.147 582.519 532.442 582.635 532.66 582.841C532.878 583.048 533 583.326 533 583.617C533 583.908 532.878 584.186 532.66 584.392C532.442 584.598 532.147 584.715 531.838 584.716Z" fill="#CACACA"/>
<path d="M250.9 174.88L216.865 147.834C215.702 146.907 214.976 145.584 214.848 144.155C214.72 142.726 215.2 141.307 216.182 140.21L222.446 133.23C223.431 132.135 224.837 131.453 226.356 131.333C227.875 131.212 229.382 131.663 230.548 132.588L264.583 159.634C265.746 160.561 266.472 161.884 266.6 163.313C266.728 164.742 266.248 166.161 265.266 167.258L259.002 174.238C258.017 175.332 256.611 176.015 255.092 176.135C253.574 176.256 252.066 175.805 250.9 174.88Z" fill="#3F3D56"/>
<path d="M218.651 140.773C218.122 141.364 217.863 142.129 217.932 142.899C218.001 143.669 218.392 144.382 219.019 144.881L253.054 171.928C253.683 172.426 254.495 172.669 255.313 172.604C256.132 172.539 256.889 172.172 257.42 171.582L263.684 164.602C264.214 164.01 264.472 163.246 264.403 162.476C264.334 161.706 263.943 160.993 263.316 160.493L229.281 133.447C228.653 132.949 227.84 132.706 227.022 132.77C226.204 132.835 225.446 133.203 224.915 133.793L218.651 140.773Z" fill="white"/>
<path d="M238.632 151.287C238.514 151.443 238.359 151.57 238.179 151.66C238 151.749 237.801 151.798 237.597 151.802L232.25 151.918C232.078 151.922 231.907 151.893 231.747 151.835C231.587 151.777 231.44 151.689 231.316 151.577C231.192 151.466 231.092 151.332 231.023 151.184C230.953 151.036 230.915 150.877 230.911 150.715C230.908 150.553 230.937 150.393 231 150.242C231.062 150.091 231.155 149.953 231.273 149.836C231.392 149.719 231.534 149.626 231.691 149.56C231.849 149.495 232.018 149.459 232.19 149.456L235.688 149.38L232.243 140.825C232.121 140.52 232.132 140.182 232.275 139.885C232.418 139.588 232.68 139.356 233.004 139.24C233.328 139.125 233.687 139.135 234.004 139.268C234.32 139.402 234.567 139.648 234.69 139.953L238.791 150.135C238.865 150.319 238.891 150.517 238.867 150.713C238.843 150.909 238.77 151.096 238.653 151.259L238.632 151.287Z" fill="#4B2D83"/>
<path d="M239.318 153.437C240.608 153.616 241.84 154.058 242.929 154.733C244.018 155.408 244.936 156.299 245.619 157.344C246.301 158.389 246.732 159.562 246.881 160.781C247.03 162 246.893 163.235 246.48 164.398L271.585 182.596L256.014 187.638L234.561 169.584C232.53 168.802 230.874 167.345 229.908 165.491C228.941 163.636 228.731 161.513 229.318 159.523C229.904 157.532 231.246 155.813 233.089 154.692C234.932 153.57 237.148 153.124 239.318 153.437Z" fill="#FFB6B6"/>
<path d="M370.02 162.435L305.743 199.623C305.743 199.623 279.828 190.6 284.892 186.423C289.957 182.246 273.834 179.422 273.834 179.422L256.022 168.146L245.686 179.449C245.686 179.449 247.569 197.809 250.774 194.63C253.978 191.451 258.768 200.135 258.768 200.135C258.768 200.135 260.183 209.832 269.305 207.392C278.427 204.952 302.903 230.53 302.903 230.53L382.009 202.767L370.02 162.435Z" fill="#E8E3D3"/>
<path d="M253.995 125.52C253.25 125.52 252.515 125.356 251.849 125.043C251.182 124.729 250.602 124.274 250.156 123.713L238.383 108.942C238.005 108.468 237.73 107.928 237.574 107.353C237.417 106.779 237.383 106.181 237.472 105.593C237.561 105.006 237.772 104.441 238.093 103.931C238.414 103.421 238.839 102.975 239.343 102.619C240.362 101.9 241.642 101.592 242.902 101.761C243.526 101.845 244.127 102.044 244.669 102.346C245.211 102.648 245.685 103.048 246.063 103.522L253.765 113.185L273.546 85.2644C274.252 84.2677 275.35 83.5757 276.599 83.3408C277.847 83.1059 279.143 83.3472 280.202 84.0117C281.262 84.6762 281.997 85.7094 282.247 86.8841C282.496 88.0587 282.24 89.2786 281.534 90.2753L257.989 123.508C257.563 124.109 256.991 124.605 256.319 124.955C255.647 125.305 254.896 125.498 254.129 125.518C254.084 125.519 254.04 125.52 253.995 125.52Z" fill="white"/>
</g>
<defs>
<clipPath id="clip0_3_11">
<rect width="533" height="585" fill="white"/>
</clipPath>
</defs>
</svg>
