<svg width="583" height="310" viewBox="0 0 583 310" fill="none" xmlns="http://www.w3.org/2000/svg">
<g clip-path="url(#clip0_11_139)">
<path d="M579.227 309.199H254.603C253.602 309.198 252.643 308.8 251.936 308.092C251.229 307.384 250.831 306.425 250.829 305.424V3.77531C250.831 2.77444 251.229 1.81493 251.936 1.10721C252.643 0.399483 253.602 0.00130992 254.603 0H579.227C580.227 0.00130992 581.186 0.399483 581.893 1.10721C582.601 1.81493 582.999 2.77444 583 3.77531V305.423C582.999 306.424 582.601 307.384 581.894 308.091C581.186 308.799 580.227 309.198 579.227 309.199ZM254.603 1.50715C254.003 1.50846 253.429 1.74732 253.005 2.17147C252.581 2.59562 252.342 3.17052 252.341 3.77035V305.423C252.342 306.023 252.581 306.598 253.005 307.022C253.429 307.446 254.003 307.685 254.603 307.686H579.227C579.826 307.685 580.401 307.446 580.825 307.022C581.249 306.598 581.488 306.023 581.489 305.423V3.77531C581.487 3.17547 581.249 2.60058 580.825 2.17643C580.401 1.75228 579.826 1.51341 579.227 1.5121L254.603 1.50715Z" fill="#E6E6E6"/>
<path d="M407.993 78.3843C407.314 78.3843 406.663 78.6544 406.182 79.135C405.702 79.6157 405.432 80.2676 405.432 80.9474C405.432 81.6272 405.702 82.2791 406.182 82.7598C406.663 83.2404 407.314 83.5105 407.993 83.5105H548.551C549.23 83.5105 549.882 83.2404 550.362 82.7598C550.843 82.2791 551.113 81.6272 551.113 80.9474C551.113 80.2676 550.843 79.6157 550.362 79.135C549.882 78.6544 549.23 78.3843 548.551 78.3843H407.993Z" fill="#E6E6E6"/>
<path d="M407.993 93.7642C407.314 93.7642 406.663 94.0343 406.182 94.5149C405.702 94.9956 405.432 95.6475 405.432 96.3273C405.432 97.0071 405.702 97.659 406.182 98.1397C406.663 98.6203 407.314 98.8904 407.993 98.8904H479.751C480.43 98.8904 481.082 98.6203 481.562 98.1397C482.043 97.659 482.313 97.0071 482.313 96.3273C482.313 95.6475 482.043 94.9956 481.562 94.5149C481.082 94.0343 480.43 93.7642 479.751 93.7642H407.993Z" fill="#E6E6E6"/>
<path d="M285.142 168.205C284.462 168.205 283.811 168.475 283.33 168.956C282.85 169.437 282.58 170.089 282.58 170.768C282.58 171.448 282.85 172.1 283.33 172.581C283.811 173.061 284.462 173.331 285.142 173.331H548.688C549.367 173.331 550.019 173.061 550.499 172.581C550.98 172.1 551.249 171.448 551.249 170.768C551.249 170.089 550.98 169.437 550.499 168.956C550.019 168.475 549.367 168.205 548.688 168.205H285.142Z" fill="#E6E6E6"/>
<path d="M285.142 183.585C284.462 183.585 283.811 183.855 283.33 184.336C282.85 184.817 282.58 185.468 282.58 186.148C282.58 186.828 282.85 187.48 283.33 187.961C283.811 188.441 284.462 188.711 285.142 188.711H479.888C480.567 188.711 481.219 188.441 481.699 187.961C482.179 187.48 482.449 186.828 482.449 186.148C482.449 185.468 482.179 184.817 481.699 184.336C481.219 183.855 480.567 183.585 479.888 183.585H285.142Z" fill="#E6E6E6"/>
<path d="M285.142 198.617C284.462 198.617 283.811 198.887 283.33 199.368C282.85 199.848 282.58 200.5 282.58 201.18C282.58 201.86 282.85 202.512 283.33 202.993C283.811 203.473 284.462 203.743 285.142 203.743H548.688C549.367 203.743 550.019 203.473 550.499 202.993C550.98 202.512 551.249 201.86 551.249 201.18C551.249 200.5 550.98 199.848 550.499 199.368C550.019 198.887 549.367 198.617 548.688 198.617H285.142Z" fill="#E6E6E6"/>
<path d="M285.142 213.997C284.462 213.997 283.811 214.267 283.33 214.748C282.85 215.228 282.58 215.88 282.58 216.56C282.58 217.24 282.85 217.892 283.33 218.372C283.811 218.853 284.462 219.123 285.142 219.123H479.888C480.567 219.123 481.219 218.853 481.699 218.372C482.179 217.892 482.449 217.24 482.449 216.56C482.449 215.88 482.179 215.228 481.699 214.748C481.219 214.267 480.567 213.997 479.888 213.997H285.142Z" fill="#E6E6E6"/>
<path d="M372.471 132.386H168.714C167.714 132.385 166.755 131.987 166.047 131.279C165.34 130.571 164.942 129.611 164.941 128.61V39.1382C164.942 38.1373 165.34 37.1777 166.047 36.4699C166.755 35.7622 167.714 35.364 168.714 35.3629H372.471C373.471 35.364 374.43 35.7622 375.138 36.4699C375.845 37.1777 376.243 38.1373 376.244 39.1382V128.61C376.243 129.611 375.845 130.571 375.138 131.279C374.43 131.987 373.471 132.385 372.471 132.386Z" fill="#4B2D83"/>
<path d="M547.058 273.836H469.824C468.824 273.835 467.865 273.437 467.158 272.729C466.45 272.021 466.052 271.062 466.051 270.061V257.679C466.052 256.678 466.45 255.718 467.158 255.011C467.865 254.303 468.824 253.905 469.824 253.904H547.058C548.059 253.905 549.018 254.303 549.725 255.011C550.432 255.718 550.83 256.678 550.831 257.679V270.061C550.83 271.062 550.432 272.021 549.725 272.729C549.018 273.437 548.059 273.835 547.058 273.836Z" fill="#FFC700"/>
<path d="M89.3686 151.429C86.0403 148.943 85.0634 144.297 87.1869 141.052C87.3978 140.735 87.6364 140.436 87.8999 140.16L88.1126 74.0609L97.9322 75.8953L98.3635 140.906C100.601 143.502 101.052 147.287 99.2404 150.055C97.1169 153.3 92.6972 153.915 89.3686 151.429Z" fill="#FFB8B8"/>
<path d="M140.435 299.38L150.559 299.38L155.375 260.31L140.434 260.31L140.435 299.38Z" fill="#FFB8B8"/>
<path d="M137.853 296.073L157.79 296.072H157.79C161.16 296.072 164.391 297.412 166.774 299.796C169.157 302.18 170.495 305.413 170.496 308.785V309.198L137.854 309.199L137.853 296.073Z" fill="#2F2E41"/>
<path d="M46.3017 299.38L56.4257 299.38L61.2413 260.31L46.3003 260.31L46.3017 299.38Z" fill="#FFB8B8"/>
<path d="M43.7197 296.073L63.6562 296.072H63.657C67.0265 296.072 70.2579 297.412 72.6406 299.796C75.0232 302.18 76.3619 305.413 76.3621 308.785V309.198L43.7203 309.199L43.7197 296.073Z" fill="#2F2E41"/>
<path d="M139.845 288.468L138.996 283.374C138.125 283.069 137.384 282.474 136.898 281.689C135.987 280.248 135.841 278.221 136.466 275.662L129.636 217.945L93.9754 180.925L71.0986 236.136L62.0426 279.826V286.139L43.9614 288.462L44.7842 282.512C44.0925 282.216 43.5162 281.702 43.1424 281.048C42.1035 279.318 42.1178 276.637 43.1845 273.079L43.2307 272.925L43.1717 272.393C43.1303 272.021 43.4022 236.334 54.0046 218.653L64.6232 164.971C64.3474 164.215 62.986 159.813 65.4827 152.375C67.9468 145.035 74.8381 133.21 93.6757 118.56L93.7405 118.51L93.8207 118.493C94.0293 118.45 114.806 114.317 125.551 128.377L125.624 128.472V128.592C125.624 129.461 125.605 149.689 124.007 154.177L149.504 201.088C150.001 201.614 154.458 206.765 152.875 220.307L156.994 266.468C157.465 267.368 161.729 275.847 157.03 279.203L157.872 285.032L139.845 288.468Z" fill="#2F2E41"/>
<path d="M97.19 94.4886C92.4025 94.4886 86.0403 92.7955 82.1458 84.9911L82.0692 84.8378L91.6637 64.4874C92.9068 61.8509 95.1317 59.8058 97.8624 58.7898C100.593 57.7738 103.613 57.8674 106.275 59.0508C108.938 60.2341 111.032 62.4132 112.11 65.1217C113.187 67.8302 113.162 70.8531 112.04 73.5435L103.745 93.4408L103.601 93.4944C101.529 94.1602 99.3659 94.4957 97.19 94.4886Z" fill="#85754D"/>
<path d="M123.767 134.836L93.5204 120.545L97.6781 69.7911L105.258 60.5216L106.726 60.207C113.474 58.7613 120.486 59.1499 127.034 61.3324L127.178 61.3804L139.628 87.9566C139.706 88.0892 148.685 103.951 136.273 112.314L123.767 134.836Z" fill="#85754D"/>
<path d="M165.349 118.662C164.988 118.812 164.64 118.991 164.307 119.196L132.434 104.608L131.617 96.1276L118.665 95.6895L118.654 110.843C118.653 112.067 119.049 113.259 119.783 114.239C120.516 115.218 121.547 115.934 122.722 116.277L160.996 127.469C161.389 128.925 162.215 130.226 163.365 131.199C164.515 132.173 165.934 132.773 167.434 132.92C168.933 133.067 170.442 132.754 171.759 132.022C173.076 131.29 174.139 130.175 174.807 128.823C175.475 127.472 175.716 125.95 175.498 124.458C175.28 122.967 174.613 121.577 173.586 120.474C172.56 119.371 171.222 118.606 169.75 118.283C168.279 117.959 166.744 118.091 165.349 118.662Z" fill="#FFB8B8"/>
<path d="M126.364 99.7467C122.732 99.7467 118.633 98.49 114.699 94.5535L114.578 94.4323L117.236 72.0889C117.58 69.1942 119.043 66.5492 121.312 64.72C123.58 62.8907 126.474 62.0225 129.374 62.3011C132.275 62.5796 134.951 63.9828 136.83 66.2105C138.709 68.4381 139.643 71.3132 139.43 74.2207L137.861 95.7221L137.741 95.8185C137.664 95.8803 132.733 99.7467 126.364 99.7467Z" fill="#85754D"/>
<path d="M136.083 42.8413C141.456 33.0073 137.844 20.6773 128.015 15.3015C118.187 9.92576 105.865 13.5399 100.492 23.3739C95.1194 33.2079 98.7314 45.5379 108.56 50.9137C118.388 56.2894 130.71 52.6753 136.083 42.8413Z" fill="#FFB8B8"/>
<path d="M138.928 22.3555C137.922 16.4988 133.223 11.6437 127.626 9.65723C122.028 7.67072 115.716 8.31676 110.235 10.6044C109.322 10.9871 108.429 11.4164 107.56 11.8909C105.557 8.06969 100.645 5.85349 96.1524 6.09268C90.7249 6.38164 85.8233 9.25515 81.1095 11.9633C76.3956 14.6715 71.3374 17.366 65.9033 17.2399C56.0832 17.0121 48.7775 7.90243 39.3346 5.19516C35.131 3.99002 30.6582 4.11193 26.5264 5.54425C22.3946 6.97657 18.8051 9.64954 16.2476 13.1985C13.6901 16.7474 12.2891 20.9995 12.2359 25.3745C12.1827 29.7495 13.4797 34.0344 15.9502 37.6446C19.9792 30.4199 29.4411 27.9797 37.6511 28.9632C45.8607 29.9468 53.5123 33.5476 61.5553 35.4656C69.5986 37.3837 78.9137 37.3013 85.1437 31.862C88.6779 28.7767 90.7528 24.3669 93.8293 20.8249C95.9105 18.4291 98.8731 16.4061 101.9 15.9299C98.9186 18.6167 96.6422 21.9952 95.2713 25.7685C92.844 32.6691 94.1417 40.9545 99.1771 46.2584C104.575 51.9448 113.048 53.4602 120.886 53.3683L121.05 53.2015C118.65 49.6075 116.756 44.6239 119.398 41.2042C122.006 37.8287 127.15 38.326 131.144 36.8324C136.708 34.752 139.934 28.2123 138.928 22.3555Z" fill="#2F2E41"/>
<path d="M193.672 310H0.706831C0.519368 310 0.339582 309.925 0.207026 309.793C0.074469 309.66 0 309.48 0 309.293C0 309.105 0.074469 308.925 0.207026 308.793C0.339582 308.66 0.519368 308.586 0.706831 308.586H193.672C193.859 308.586 194.039 308.66 194.172 308.793C194.304 308.925 194.379 309.105 194.379 309.293C194.379 309.48 194.304 309.66 194.172 309.793C194.039 309.925 193.859 310 193.672 310Z" fill="#CCCCCC"/>
<path d="M261.45 66.7433C260.565 66.7461 259.849 67.8959 259.851 69.3115C259.853 70.7231 260.567 71.8667 261.45 71.8695H336.989C337.873 71.8666 338.589 70.7169 338.588 69.3013C338.586 67.8897 337.871 66.7461 336.989 66.7433H261.45Z" fill="white"/>
<path d="M261.45 81.5956C260.565 81.5984 259.849 82.7482 259.851 84.1637C259.853 85.5753 260.567 86.7189 261.45 86.7217H336.989C337.873 86.7189 338.589 85.5691 338.588 84.1536C338.586 82.742 337.871 81.5984 336.989 81.5956H261.45Z" fill="white"/>
<path d="M261.45 96.2682C260.565 96.2711 259.849 97.4209 259.851 98.8364C259.853 100.248 260.567 101.392 261.45 101.394H293.954C294.839 101.392 295.555 100.242 295.553 98.8263C295.552 97.4147 294.837 96.271 293.954 96.2682H261.45Z" fill="white"/>
<path d="M223.096 104.385C234.416 104.385 243.594 95.2019 243.594 83.8744C243.594 72.5468 234.416 63.3641 223.096 63.3641C211.775 63.3641 202.597 72.5468 202.597 83.8744C202.597 95.2019 211.775 104.385 223.096 104.385Z" fill="white"/>
</g>
<defs>
<clipPath id="clip0_11_139">
<rect width="583" height="310" fill="white"/>
</clipPath>
</defs>
</svg>
