<svg width="30" height="28" viewBox="0 0 30 28" fill="none" xmlns="http://www.w3.org/2000/svg">
<path d="M27 5.89474H22.5V2.94737C22.5 1.32189 21.1545 0 19.5 0H10.5C8.8455 0 7.5 1.32189 7.5 2.94737V5.89474H3C1.3455 5.89474 0 7.21663 0 8.8421V25.0526C0 26.6781 1.3455 28 3 28H27C28.6545 28 30 26.6781 30 25.0526V8.8421C30 7.21663 28.6545 5.89474 27 5.89474ZM19.5 2.94737V5.89474H10.5V2.94737H19.5ZM9 8.8421H27V13.2632H3V8.8421H9ZM3 25.0526V16.2105H12V19.1579H18V16.2105H27L27.0015 25.0526H3Z" 
fill="white" 
/>
</svg>
