<svg width="32" height="32" viewBox="0 0 32 32" fill="none" xmlns="http://www.w3.org/2000/svg">
<path d="M12.9533 16C14.488 16 15.62 14.868 15.62 13.3334C15.62 11.7987 14.488 10.6667 12.9533 10.6667C11.4186 10.6667 10.2866 11.7987 10.2866 13.3334C10.2866 14.868 11.4173 16 12.9533 16Z" fill="white"/>
<path d="M26.6667 5.33331H5.33341C3.86275 5.33331 2.66675 6.45465 2.66675 7.83331V24.1666C2.66675 25.5453 3.86275 26.6666 5.33341 26.6666H26.6667C28.1374 26.6666 29.3334 25.5453 29.3334 24.1666V7.83331C29.3334 6.45465 28.1374 5.33331 26.6667 5.33331ZM26.6667 24L5.33341 23.9853V7.99998L26.6667 8.01465V24Z" fill="white"/>
<path d="M18.6667 12H24V14.6667H18.6667V12ZM20 17.3333H24V20H20V17.3333ZM17.9067 20.7147C17.9067 18.8827 15.672 17 12.9533 17C10.2347 17 8 18.8827 8 20.7147V21.3333H17.9067V20.7147Z" fill="white"/>
</svg>
